<svg xmlns="http://www.w3.org/2000/svg" width="12.105" height="13.881" viewBox="0 0 12.105 13.881">
  <g id="noun-log-out-1623428" transform="translate(-116.701 -111.75)">
    <path id="Path_754" data-name="Path 754" d="M210.566,124.47h-4.46a.913.913,0,0,1-.91-.91v-9.74a.913.913,0,0,1,.91-.91h4.46a.455.455,0,0,0,0-.91h-4.46a1.826,1.826,0,0,0-1.821,1.821v9.74a1.826,1.826,0,0,0,1.821,1.821h4.46a.455.455,0,1,0,0-.91Z" transform="translate(-87.334)" fill="#42404b" stroke="#44414c" stroke-width="0.5"/>
    <path id="Path_755" data-name="Path 755" d="M296.514,193.724c0-.023,0-.023-.023-.046,0-.023,0-.046-.023-.046s0-.023-.023-.046c0-.023,0-.023-.023-.023v-.046l-2.913-3.163a.49.49,0,0,0-.66-.023.461.461,0,0,0-.023.637l2.207,2.367h-6.3a.455.455,0,0,0,0,.91h6.3l-2.207,2.367a.461.461,0,0,0,.023.637.449.449,0,0,0,.319.137.484.484,0,0,0,.341-.159l2.89-3.118v-.046c.023,0,.023,0,.023-.023.046-.023.046-.023.046-.046.023,0,.023-.023.023-.046.023-.023.023-.023.023-.046s.023-.068.023-.091-.022-.068-.022-.091Z" transform="translate(-167.981 -75.102)" fill="#42404b" stroke="#44414c" stroke-width="0.5"/>
  </g>
</svg>
